<?xml version="1.0" encoding="UTF-8" standalone="no"?>
<!-- Created with Inkscape (http://www.inkscape.org/) -->

<svg
   xmlns:dc="http://purl.org/dc/elements/1.1/"
   xmlns:cc="http://creativecommons.org/ns#"
   xmlns:rdf="http://www.w3.org/1999/02/22-rdf-syntax-ns#"
   xmlns:svg="http://www.w3.org/2000/svg"
   xmlns="http://www.w3.org/2000/svg"
   xmlns:xlink="http://www.w3.org/1999/xlink"
   xmlns:sodipodi="http://sodipodi.sourceforge.net/DTD/sodipodi-0.dtd"
   xmlns:inkscape="http://www.inkscape.org/namespaces/inkscape"
   width="256"
   height="256"
   id="svg2"
   version="1.1"
   inkscape:version="0.48.5 r10040"
   sodipodi:docname="Ion.svg"
   inkscape:export-filename="/home/sofias/binaryboustroph.png"
   inkscape:export-xdpi="90"
   inkscape:export-ydpi="90">
  <defs
     id="defs4">
    <inkscape:perspective
       sodipodi:type="inkscape:persp3d"
       inkscape:vp_x="0 : 128 : 1"
       inkscape:vp_y="0 : 1000 : 0"
       inkscape:vp_z="256 : 128 : 1"
       inkscape:persp3d-origin="128 : 85.333333 : 1"
       id="perspective3317" />
    <linearGradient
       id="linearGradient4656">
      <stop
         style="stop-color:#a0ffc0;stop-opacity:1;"
         offset="0"
         id="stop4658" />
      <stop
         style="stop-color:#a0ffc0;stop-opacity:0;"
         offset="1"
         id="stop4660" />
    </linearGradient>
    <linearGradient
       inkscape:collect="always"
       id="linearGradient4640">
      <stop
         style="stop-color:#ffffff;stop-opacity:1;"
         offset="0"
         id="stop4642" />
      <stop
         style="stop-color:#ffffff;stop-opacity:0;"
         offset="1"
         id="stop4644" />
    </linearGradient>
    <linearGradient
       id="linearGradient4116"
       inkscape:collect="always">
      <stop
         id="stop4118"
         offset="0"
         style="stop-color:#ffffff;stop-opacity:1" />
      <stop
         id="stop4120"
         offset="1"
         style="stop-color:#ffffff;stop-opacity:0" />
    </linearGradient>
    <linearGradient
       inkscape:collect="always"
       id="linearGradient4104">
      <stop
         style="stop-color:#000000;stop-opacity:1;"
         offset="0"
         id="stop4106" />
      <stop
         style="stop-color:#000000;stop-opacity:0;"
         offset="1"
         id="stop4108" />
    </linearGradient>
    <linearGradient
       id="linearGradient4096"
       inkscape:collect="always">
      <stop
         id="stop4098"
         offset="0"
         style="stop-color:#ffffff;stop-opacity:1" />
      <stop
         id="stop4100"
         offset="1"
         style="stop-color:#ffffff;stop-opacity:0" />
    </linearGradient>
    <linearGradient
       inkscape:collect="always"
       id="linearGradient4084">
      <stop
         style="stop-color:#000000;stop-opacity:1;"
         offset="0"
         id="stop4086" />
      <stop
         style="stop-color:#000000;stop-opacity:0;"
         offset="1"
         id="stop4088" />
    </linearGradient>
    <linearGradient
       id="linearGradient4049">
      <stop
         style="stop-color:#000000;stop-opacity:1;"
         offset="0"
         id="stop4051" />
      <stop
         style="stop-color:#ffffff;stop-opacity:0;"
         offset="1"
         id="stop4053" />
    </linearGradient>
    <linearGradient
       inkscape:collect="always"
       xlink:href="#linearGradient4049"
       id="linearGradient4055"
       x1="256"
       y1="32"
       x2="256"
       y2="16"
       gradientUnits="userSpaceOnUse"
       gradientTransform="matrix(2,0,0,1,-208,0)" />
    <linearGradient
       inkscape:collect="always"
       xlink:href="#linearGradient4084"
       id="linearGradient4090"
       x1="256"
       y1="32"
       x2="192"
       y2="16"
       gradientUnits="userSpaceOnUse"
       gradientTransform="matrix(0.25,0,0,1,192,32)" />
    <linearGradient
       inkscape:collect="always"
       xlink:href="#linearGradient4096"
       id="linearGradient4094"
       gradientUnits="userSpaceOnUse"
       gradientTransform="matrix(-0.25,0,0,-1,320,48)"
       x1="256"
       y1="32"
       x2="256"
       y2="16" />
    <linearGradient
       inkscape:collect="always"
       xlink:href="#linearGradient4104"
       id="linearGradient4110"
       x1="288"
       y1="64"
       x2="280"
       y2="56"
       gradientUnits="userSpaceOnUse"
       gradientTransform="translate(-32,-32)" />
    <linearGradient
       inkscape:collect="always"
       xlink:href="#linearGradient4116"
       id="linearGradient4114"
       gradientUnits="userSpaceOnUse"
       gradientTransform="matrix(-1,0,0,-1,544,80)"
       x1="288"
       y1="64"
       x2="280"
       y2="56" />
    <linearGradient
       inkscape:collect="always"
       xlink:href="#linearGradient4640"
       id="linearGradient4696"
       gradientUnits="userSpaceOnUse"
       x1="64"
       y1="64"
       x2="-64"
       y2="64"
       gradientTransform="translate(-512.00001,-5.2875e-6)" />
  </defs>
  <sodipodi:namedview
     id="base"
     pagecolor="#ffffff"
     bordercolor="#666666"
     borderopacity="1.0"
     inkscape:pageopacity="0.0"
     inkscape:pageshadow="2"
     inkscape:zoom="2"
     inkscape:cx="75.58854"
     inkscape:cy="128.33813"
     inkscape:document-units="px"
     inkscape:current-layer="layer5"
     showgrid="true"
     inkscape:snap-bbox="true"
     showguides="true"
     inkscape:guide-bbox="true"
     inkscape:snap-center="true"
     inkscape:window-width="1920"
     inkscape:window-height="1000"
     inkscape:window-x="-11"
     inkscape:window-y="-11"
     inkscape:window-maximized="1">
    <inkscape:grid
       type="xygrid"
       id="grid3004"
       empspacing="4"
       visible="true"
       enabled="true"
       snapvisiblegridlinesonly="true"
       spacingx="4px"
       spacingy="4px" />
  </sodipodi:namedview>
  <metadata
     id="metadata7">
    <rdf:RDF>
      <cc:Work
         rdf:about="">
        <dc:format>image/svg+xml</dc:format>
        <dc:type
           rdf:resource="http://purl.org/dc/dcmitype/StillImage" />
        <dc:title></dc:title>
      </cc:Work>
    </rdf:RDF>
  </metadata>
  <g
     inkscape:groupmode="layer"
     id="layer5"
     inkscape:label="icon"
     transform="translate(0,-256)">
    <path
       style="fill:#8040c0;fill-opacity:1;stroke:none"
       d="M 16 16 L 16 240 L 64 240 L 64 208 L 32 208 L 32 176 L 80 176 C 88.83656 176 96 168.83656 96 160 C 96 151.16344 88.83656 144 80 144 C 53.49034 144 32 122.50966 32 96 C 32 75.10292 45.36032 57.34122 64 50.75 L 64 16 L 16 16 z M 96 16 L 96 48 L 128 48 L 128 80 L 80 80 C 71.16344 80 64 87.16344 64 96 C 64 104.83656 71.16344 112 80 112 C 106.50966 112 128 133.49034 128 160 C 128 180.89706 114.63968 198.65878 96 205.25 L 96 240 L 240 240 L 240 48 C 240 74.509668 218.50967 96 192 96 C 165.49033 96 144 74.509668 144 48 C 144 35.708822 148.62086 24.491486 156.21875 16 L 96 16 z M 240 48 L 240 16 L 227.78125 16 C 235.37914 24.491486 240 35.708822 240 48 z M 192 16 C 174.32689 16 160 30.326888 160 48 C 160 65.673112 174.32689 80 192 80 C 209.67311 80 224 65.673112 224 48 C 224 30.326888 209.67311 16 192 16 z M 168 40 L 216 40 L 216 56 L 168 56 L 168 40 z M 160 208 L 224 208 L 224 224 L 160 224 L 160 208 z "
       transform="translate(0,256)"
       id="rect3289" />
  </g>
</svg>
