<?xml version="1.0" encoding="UTF-8" standalone="no"?>
<!-- Created with Inkscape (http://www.inkscape.org/) -->

<svg
   xmlns:dc="http://purl.org/dc/elements/1.1/"
   xmlns:cc="http://creativecommons.org/ns#"
   xmlns:rdf="http://www.w3.org/1999/02/22-rdf-syntax-ns#"
   xmlns:svg="http://www.w3.org/2000/svg"
   xmlns="http://www.w3.org/2000/svg"
   xmlns:xlink="http://www.w3.org/1999/xlink"
   xmlns:sodipodi="http://sodipodi.sourceforge.net/DTD/sodipodi-0.dtd"
   xmlns:inkscape="http://www.inkscape.org/namespaces/inkscape"
   width="256"
   height="256"
   id="svg2"
   version="1.1"
   inkscape:version="0.48.5 r10040"
   sodipodi:docname="application.svg"
   inkscape:export-filename="C:\Users\sofias\Pictures\redox_monochrome\ion2.png"
   inkscape:export-xdpi="11.25"
   inkscape:export-ydpi="11.25">
  <defs
     id="defs4">
    <inkscape:perspective
       sodipodi:type="inkscape:persp3d"
       inkscape:vp_x="0 : 128 : 1"
       inkscape:vp_y="0 : 1000 : 0"
       inkscape:vp_z="256 : 128 : 1"
       inkscape:persp3d-origin="128 : 85.333333 : 1"
       id="perspective3317" />
    <linearGradient
       id="linearGradient4656">
      <stop
         style="stop-color:#a0ffc0;stop-opacity:1;"
         offset="0"
         id="stop4658" />
      <stop
         style="stop-color:#a0ffc0;stop-opacity:0;"
         offset="1"
         id="stop4660" />
    </linearGradient>
    <linearGradient
       inkscape:collect="always"
       id="linearGradient4640">
      <stop
         style="stop-color:#ffffff;stop-opacity:1;"
         offset="0"
         id="stop4642" />
      <stop
         style="stop-color:#ffffff;stop-opacity:0;"
         offset="1"
         id="stop4644" />
    </linearGradient>
    <linearGradient
       id="linearGradient4116"
       inkscape:collect="always">
      <stop
         id="stop4118"
         offset="0"
         style="stop-color:#ffffff;stop-opacity:1" />
      <stop
         id="stop4120"
         offset="1"
         style="stop-color:#ffffff;stop-opacity:0" />
    </linearGradient>
    <linearGradient
       inkscape:collect="always"
       id="linearGradient4104">
      <stop
         style="stop-color:#000000;stop-opacity:1;"
         offset="0"
         id="stop4106" />
      <stop
         style="stop-color:#000000;stop-opacity:0;"
         offset="1"
         id="stop4108" />
    </linearGradient>
    <linearGradient
       id="linearGradient4096"
       inkscape:collect="always">
      <stop
         id="stop4098"
         offset="0"
         style="stop-color:#ffffff;stop-opacity:1" />
      <stop
         id="stop4100"
         offset="1"
         style="stop-color:#ffffff;stop-opacity:0" />
    </linearGradient>
    <linearGradient
       inkscape:collect="always"
       id="linearGradient4084">
      <stop
         style="stop-color:#000000;stop-opacity:1;"
         offset="0"
         id="stop4086" />
      <stop
         style="stop-color:#000000;stop-opacity:0;"
         offset="1"
         id="stop4088" />
    </linearGradient>
    <linearGradient
       id="linearGradient4049">
      <stop
         style="stop-color:#000000;stop-opacity:1;"
         offset="0"
         id="stop4051" />
      <stop
         style="stop-color:#ffffff;stop-opacity:0;"
         offset="1"
         id="stop4053" />
    </linearGradient>
    <linearGradient
       inkscape:collect="always"
       xlink:href="#linearGradient4049"
       id="linearGradient4055"
       x1="256"
       y1="32"
       x2="256"
       y2="16"
       gradientUnits="userSpaceOnUse"
       gradientTransform="matrix(2,0,0,1,-208,0)" />
    <linearGradient
       inkscape:collect="always"
       xlink:href="#linearGradient4084"
       id="linearGradient4090"
       x1="256"
       y1="32"
       x2="192"
       y2="16"
       gradientUnits="userSpaceOnUse"
       gradientTransform="matrix(0.25,0,0,1,192,32)" />
    <linearGradient
       inkscape:collect="always"
       xlink:href="#linearGradient4096"
       id="linearGradient4094"
       gradientUnits="userSpaceOnUse"
       gradientTransform="matrix(-0.25,0,0,-1,320,48)"
       x1="256"
       y1="32"
       x2="256"
       y2="16" />
    <linearGradient
       inkscape:collect="always"
       xlink:href="#linearGradient4104"
       id="linearGradient4110"
       x1="288"
       y1="64"
       x2="280"
       y2="56"
       gradientUnits="userSpaceOnUse"
       gradientTransform="translate(-32,-32)" />
    <linearGradient
       inkscape:collect="always"
       xlink:href="#linearGradient4116"
       id="linearGradient4114"
       gradientUnits="userSpaceOnUse"
       gradientTransform="matrix(-1,0,0,-1,544,80)"
       x1="288"
       y1="64"
       x2="280"
       y2="56" />
    <linearGradient
       inkscape:collect="always"
       xlink:href="#linearGradient4640"
       id="linearGradient4696"
       gradientUnits="userSpaceOnUse"
       x1="64"
       y1="64"
       x2="-64"
       y2="64"
       gradientTransform="translate(-512.00001,-5.2875e-6)" />
  </defs>
  <sodipodi:namedview
     id="base"
     pagecolor="#ffffff"
     bordercolor="#666666"
     borderopacity="1.0"
     inkscape:pageopacity="0.0"
     inkscape:pageshadow="2"
     inkscape:zoom="2"
     inkscape:cx="-12.691853"
     inkscape:cy="120.81552"
     inkscape:document-units="px"
     inkscape:current-layer="layer5"
     showgrid="true"
     inkscape:snap-bbox="true"
     showguides="true"
     inkscape:guide-bbox="true"
     inkscape:snap-center="true"
     inkscape:window-width="1920"
     inkscape:window-height="1000"
     inkscape:window-x="-11"
     inkscape:window-y="-11"
     inkscape:window-maximized="1">
    <inkscape:grid
       type="xygrid"
       id="grid3004"
       empspacing="4"
       visible="true"
       enabled="true"
       snapvisiblegridlinesonly="true"
       spacingx="4px"
       spacingy="4px" />
  </sodipodi:namedview>
  <metadata
     id="metadata7">
    <rdf:RDF>
      <cc:Work
         rdf:about="">
        <dc:format>image/svg+xml</dc:format>
        <dc:type
           rdf:resource="http://purl.org/dc/dcmitype/StillImage" />
        <dc:title></dc:title>
      </cc:Work>
    </rdf:RDF>
  </metadata>
  <g
     inkscape:groupmode="layer"
     id="layer5"
     inkscape:label="icon"
     transform="translate(0,-256)">
    <path
       style="fill:#80c040;fill-opacity:1;stroke:none"
       d="M 0 0 L 12.6875 63.46875 C 21.458738 53.950772 34.036331 48 48 48 L 64 48 L 64 0 L 0 0 z M 96 0 L 96 48 L 160 48 L 160 80 L 96 80 L 96 112 L 112 112 C 138.50967 112 160 133.49033 160 160 C 160 186.50967 138.50967 208 112 208 L 96 208 L 96 256 L 224 256 L 256 96 L 224 0 L 96 0 z M 48 80 C 39.16344 80 32 87.16344 32 96 C 32 104.83656 39.16344 112 48 112 L 64 112 L 64 80 L 48 80 z M 27.90625 139.59375 L 32 160 L 26.65625 176 L 64 176 L 64 144 L 48 144 C 40.823697 144 34.020161 142.41668 27.90625 139.59375 z M 96 144 L 96 176 L 112 176 C 120.83656 176 128 168.83656 128 160 C 128 151.16344 120.83656 144 112 144 L 96 144 z M 16 208 L 0 256 L 64 256 L 64 208 L 16 208 z "
       transform="translate(0,256)"
       id="path3818" />
    <path
       sodipodi:type="arc"
       style="fill:#ffffff;fill-opacity:1;stroke:none"
       id="path3033"
       sodipodi:cx="164"
       sodipodi:cy="56"
       sodipodi:rx="56"
       sodipodi:ry="56"
       d="m 220,56 a 56,56 0 1 1 -112,0 56,56 0 1 1 112,0 z"
       transform="translate(20,240)" />
    <path
       style="fill:#80c040;fill-opacity:1;stroke:none"
       d="M 184 0 C 161.90861 4.4408921e-015 144 17.90861 144 40 C 144 62.09139 161.90861 80 184 80 C 206.09139 80 224 62.09139 224 40 C 224 17.90861 206.09139 -8.9439172e-015 184 0 z M 160 32 L 208 32 L 208 48 L 160 48 L 160 32 z "
       transform="translate(0,256)"
       id="path3035" />
  </g>
</svg>
